<svg width="22" height="23" viewBox="0 0 22 23" fill="none" xmlns="http://www.w3.org/2000/svg">
<g id="ant-design:facebook-filled" opacity="0.5">
<path id="Vector" d="M18.816 2.96515H3.18404C2.80811 2.96515 2.50439 3.26887 2.50439 3.6448V19.2767C2.50439 19.6527 2.80811 19.9564 3.18404 19.9564H18.816C19.1919 19.9564 19.4956 19.6527 19.4956 19.2767V3.6448C19.4956 3.26887 19.1919 2.96515 18.816 2.96515ZM16.8535 7.92447H15.4963C14.4322 7.92447 14.2262 8.42996 14.2262 9.17332V10.8109H16.7664L16.4351 13.3744H14.2262V19.9564H11.5777V13.3765H9.36248V10.8109H11.5777V8.92058C11.5777 6.72659 12.9179 5.53083 14.8761 5.53083C15.8149 5.53083 16.6199 5.60092 16.8556 5.63277V7.92447H16.8535Z" fill="white"/>
</g>
</svg>
