<svg width="22" height="23" viewBox="0 0 22 23" fill="none" xmlns="http://www.w3.org/2000/svg">
<g id="ant-design:instagram-filled" opacity="0.5">
<path id="Vector" d="M10.9999 8.59706C9.4229 8.59706 8.13599 9.88398 8.13599 11.4609C8.13599 13.0379 9.4229 14.3248 10.9999 14.3248C12.5768 14.3248 13.8637 13.0379 13.8637 11.4609C13.8637 9.88398 12.5768 8.59706 10.9999 8.59706ZM19.5893 11.4609C19.5893 10.275 19.6001 9.0998 19.5335 7.91601C19.4669 6.54101 19.1532 5.32069 18.1477 4.31523C17.1401 3.30761 15.9219 2.99609 14.5469 2.92948C13.361 2.86288 12.1858 2.87362 11.002 2.87362C9.81607 2.87362 8.64087 2.86288 7.45709 2.92948C6.08208 2.99609 4.86177 3.30976 3.8563 4.31523C2.84869 5.32284 2.53716 6.54101 2.47056 7.91601C2.40396 9.10194 2.4147 10.2771 2.4147 11.4609C2.4147 12.6447 2.40396 13.8221 2.47056 15.0058C2.53716 16.3808 2.85083 17.6012 3.8563 18.6066C4.86392 19.6142 6.08208 19.9258 7.45709 19.9924C8.64302 20.059 9.81822 20.0482 11.002 20.0482C12.1879 20.0482 13.3631 20.059 14.5469 19.9924C15.9219 19.9258 17.1422 19.6121 18.1477 18.6066C19.1553 17.599 19.4669 16.3808 19.5335 15.0058C19.6022 13.8221 19.5893 12.6469 19.5893 11.4609ZM10.9999 15.8674C8.56138 15.8674 6.59341 13.8994 6.59341 11.4609C6.59341 9.02245 8.56138 7.05448 10.9999 7.05448C13.4383 7.05448 15.4063 9.02245 15.4063 11.4609C15.4063 13.8994 13.4383 15.8674 10.9999 15.8674ZM15.5868 7.90312C15.0174 7.90312 14.5577 7.44335 14.5577 6.87401C14.5577 6.30468 15.0174 5.84491 15.5868 5.84491C16.1561 5.84491 16.6159 6.30468 16.6159 6.87401C16.616 7.00921 16.5895 7.1431 16.5379 7.26804C16.4862 7.39297 16.4104 7.50648 16.3148 7.60208C16.2192 7.69767 16.1057 7.77347 15.9808 7.82513C15.8559 7.87678 15.722 7.90329 15.5868 7.90312Z" fill="white"/>
</g>
</svg>
