<svg width="34" height="23" viewBox="0 0 34 23" fill="none" xmlns="http://www.w3.org/2000/svg">
<g id="payment-methods/light/maestro" clip-path="url(#clip0_1652_1640)">
<path id="Rectangle 1" d="M0.343018 3.22699C0.343018 1.71117 1.58595 0.482361 3.11919 0.482361H30.8809C32.4142 0.482361 33.6571 1.71117 33.6571 3.22699V19.6947C33.6571 21.2106 32.4142 22.4394 30.8809 22.4394H3.11919C1.58595 22.4394 0.343018 21.2106 0.343018 19.6947V3.22699Z" fill="#CCEFFF"/>
<g id="Group 2">
<path id="Vector" d="M20.6437 17.9367H13.3569V4.98993H20.6437V17.9367Z" fill="#6C6BBD"/>
<path id="Vector_2" d="M13.8237 11.4609C13.8237 8.83456 15.0674 6.49511 17.0044 4.98748C15.5879 3.88502 13.8004 3.227 11.8576 3.227C7.25837 3.227 3.53015 6.91338 3.53015 11.4609C3.53015 16.0084 7.25837 19.6948 11.8576 19.6948C13.8004 19.6948 15.5879 19.0367 17.0044 17.9343C15.0674 16.4267 13.8237 14.0872 13.8237 11.4609Z" fill="#EB001B"/>
<path id="Vector_3" d="M30.471 11.4609C30.471 16.0084 26.7428 19.6948 22.1435 19.6948C20.2008 19.6948 18.4132 19.0367 16.9962 17.9343C18.9337 16.4267 20.1775 14.0872 20.1775 11.4609C20.1775 8.83456 18.9337 6.49511 16.9962 4.98748C18.4132 3.88502 20.2008 3.227 22.1435 3.227C26.7428 3.227 30.471 6.91338 30.471 11.4609Z" fill="#0099DF"/>
</g>
</g>
<defs>
<clipPath id="clip0_1652_1640">
<rect width="33.3141" height="21.957" fill="white" transform="translate(0.343018 0.482361)"/>
</clipPath>
</defs>
</svg>
