<svg width="35" height="23" viewBox="0 0 35 23" fill="none" xmlns="http://www.w3.org/2000/svg">
<g id="payment-methods/light/american-express" clip-path="url(#clip0_1652_1658)">
<path id="Rectangle 1" d="M0.728271 3.22699C0.728271 1.71117 1.97121 0.482361 3.50445 0.482361H31.2662C32.7994 0.482361 34.0424 1.71117 34.0424 3.22699V19.6947C34.0424 21.2106 32.7994 22.4394 31.2662 22.4394H3.50445C1.97121 22.4394 0.728271 21.2106 0.728271 19.6947V3.22699Z" fill="#D4DEF7"/>
<path id="Vector" d="M25.3132 7.25525L24.6686 8.66008H25.9613L25.3132 7.25525ZM17.875 8.1258C17.9965 8.06879 18.0681 7.94478 18.0681 7.79078C18.0681 7.63987 17.9929 7.53057 17.8714 7.47921C17.7608 7.42228 17.5905 7.4157 17.4273 7.4157H16.2741V8.19845H17.4118C17.594 8.19849 17.7463 8.19608 17.875 8.1258ZM3.09819 7.25525L2.4609 8.66008H3.73933L3.09819 7.25525ZM32.7697 16.255H30.9612V15.4992H32.7624C32.941 15.4992 33.0661 15.4781 33.1414 15.4119C33.2126 15.3528 33.2528 15.2693 33.2521 15.182C33.2521 15.0793 33.2067 14.9978 33.1376 14.949C33.0698 14.8952 32.9707 14.8707 32.8076 14.8707C31.9283 14.8438 30.8312 14.8951 30.8312 13.7797C30.8312 13.2685 31.1922 12.7304 32.175 12.7304H34.0405V12.0291H32.3073C31.7842 12.0291 31.4042 12.1417 31.1351 12.317V12.0291H28.5715C28.1616 12.0291 27.6804 12.1204 27.4529 12.317V12.0291H22.8746V12.317C22.5104 12.0805 21.8955 12.0291 21.6119 12.0291H18.5921V12.317C18.3039 12.0659 17.6628 12.0291 17.2722 12.0291H13.8926L13.1194 12.7818L12.395 12.0291H7.34656V16.9477H12.2998L13.0966 16.1829L13.8472 16.9477L16.9004 16.9501V15.7931H17.2007C17.6057 15.7989 18.0835 15.7841 18.5051 15.6202V16.9476H21.0235V15.6655H21.145C21.2999 15.6655 21.3153 15.6714 21.3153 15.8107V16.9473H28.9657C29.4515 16.9473 29.9592 16.8356 30.2403 16.6324V16.9473H32.667C33.1719 16.9473 33.6651 16.8836 34.0404 16.7206V15.8044C33.813 16.1036 33.3695 16.2552 32.7696 16.2552L32.7697 16.255ZM17.2408 15.0936H16.0722V16.2759H14.2519L13.0987 15.1091L11.9003 16.2759H8.19066V12.7511H11.9574L13.1096 13.9066L14.3008 12.7511H17.2933C18.0365 12.7511 18.8716 12.9363 18.8716 13.9124C18.8716 14.8915 18.0594 15.0936 17.2408 15.0936ZM22.8599 14.9338C22.9921 15.1059 23.0112 15.2665 23.0151 15.5772V16.276H22.0747V15.835C22.0747 15.623 22.0975 15.3089 21.9234 15.145C21.7867 15.0188 21.578 14.9887 21.2362 14.9887H20.2354V16.276H19.2944V12.7512H21.4565C21.9308 12.7512 22.276 12.7701 22.5834 12.9175C22.879 13.0781 23.065 13.2981 23.065 13.7002C23.0649 14.2628 22.6477 14.5498 22.4012 14.638C22.6095 14.7071 22.7799 14.8311 22.8599 14.9338ZM26.7284 13.4801H24.5354V14.1209H26.6748V14.8401H24.5354V15.5414L26.7284 15.5445V16.2759H23.6027V12.7511H26.7284V13.4801ZM29.135 16.2759H27.311V15.52H29.1277C29.3054 15.52 29.4313 15.4989 29.5103 15.4327C29.5746 15.3782 29.6209 15.299 29.6209 15.203C29.6209 15.1002 29.5708 15.0186 29.5066 14.9697C29.435 14.916 29.3361 14.8917 29.1731 14.8917C28.2973 14.8646 27.2004 14.9159 27.2004 13.8006C27.2004 13.2893 27.5576 12.7512 28.5394 12.7512H30.417V13.5013H28.699C28.5287 13.5013 28.418 13.5071 28.3238 13.5651C28.2211 13.6222 28.1831 13.7068 28.1831 13.8186C28.1831 13.9515 28.2702 14.0421 28.388 14.0812C28.4868 14.1121 28.5929 14.1211 28.7524 14.1211L29.2566 14.1335C29.7649 14.1444 30.114 14.2237 30.3261 14.4169C30.5083 14.5865 30.6063 14.8009 30.6063 15.1636C30.6062 15.9219 30.0794 16.2759 29.135 16.2759ZM21.8715 13.537C21.7583 13.4765 21.5913 13.4733 21.4247 13.4733H20.2714V14.2649H21.4093C21.5914 14.2649 21.7463 14.2591 21.8715 14.1923C21.9929 14.1263 22.0655 14.0047 22.0655 13.854C22.0655 13.7032 21.9929 13.5941 21.8715 13.537ZM32.3353 13.4732C32.165 13.4732 32.0517 13.479 31.9563 13.5369C31.8575 13.5941 31.8196 13.6787 31.8196 13.7905C31.8196 13.9234 31.903 14.0139 32.0243 14.0531C32.1232 14.084 32.2292 14.093 32.3852 14.093L32.8929 14.1052C33.405 14.1166 33.747 14.1959 33.9555 14.389C33.9935 14.4158 34.0163 14.446 34.0424 14.4762V13.4733H32.3354L32.3353 13.4732ZM17.2732 13.4732H16.0521V14.371H17.2623C17.6221 14.371 17.8459 14.2103 17.8461 13.9054C17.8459 13.5972 17.6113 13.4732 17.2732 13.4732ZM9.12343 13.4732V14.1141H11.1794V14.8333H9.12343V15.5345H11.426L12.4957 14.5005L11.4714 13.4732H9.12343ZM15.1359 15.9381V13.1123L13.6981 14.5025L15.1359 15.9381ZM9.20202 10.2789V10.8863H17.0263L17.0227 9.60144H17.1741C17.2801 9.60477 17.311 9.61355 17.311 9.77099V10.8863H21.3578V10.5872C21.6842 10.7445 22.1918 10.8863 22.8599 10.8863H24.5623L24.9267 10.1036H25.7345L26.0908 10.8863H29.3715V10.1428L29.8682 10.8863H32.4973V5.97162H29.8955V6.55205L29.5312 5.97162H26.8614V6.55205L26.5269 5.97162H22.9206C22.3169 5.97162 21.7864 6.0474 21.3577 6.25861V5.97162H18.869V6.25861C18.5962 6.0409 18.2246 5.97162 17.8114 5.97162H8.71947L8.10947 7.24106L7.48298 5.97162H4.61931V6.55205L4.30466 5.97162H1.86243L0.728314 8.30843V10.1776L2.40533 6.65365H3.79682L5.38953 9.99011V6.65365H6.91812L8.14372 9.04422L9.26968 6.65365H10.8289V10.1776H9.869L9.8655 7.41771L8.50745 10.1776H7.68517L6.32367 7.41526V10.1776H4.41874L4.0589 9.39159H2.10896L1.7454 10.1776H0.728271V10.8866H2.32849L2.68928 10.1038H3.49712L3.85696 10.8866H7.00534V10.2881L7.28634 10.889H8.92073L9.20177 10.2791L9.20202 10.2789ZM21.5315 7.06441C21.8341 6.78315 22.3083 6.65345 22.9537 6.65345H23.8603V7.40853H22.9727C22.6311 7.40853 22.4379 7.45423 22.2521 7.61733C22.0924 7.76568 21.9829 8.04617 21.9829 8.41551C21.9829 8.79307 22.0664 9.06527 22.2403 9.24308C22.3845 9.38253 22.6466 9.42483 22.8931 9.42483H23.3138L24.6337 6.65357H26.0369L27.6225 9.9867V6.65361H29.0485L30.6947 9.10785V6.65361H31.654V10.1775H30.3269L28.5517 7.53258V10.1775H26.6444L26.28 9.39143H24.3345L23.9809 10.1775H22.8849C22.4298 10.1775 21.8534 10.0869 21.527 9.78767C21.1978 9.4885 21.0267 9.08319 21.0267 8.44242C21.0266 7.91972 21.1288 7.44197 21.5315 7.06441ZM19.6052 6.65349H20.5607V10.1775H19.6052V6.65349ZM15.2969 6.65349H17.4509C17.9294 6.65349 18.2822 6.66491 18.585 6.82228C18.8813 6.97969 19.0589 7.2095 19.0589 7.6025C19.0589 8.16441 18.6419 8.45465 18.3991 8.54185C18.6039 8.61201 18.7791 8.73594 18.8625 8.83858C18.9947 9.01387 19.0175 9.17043 19.0175 9.48513V10.1774H18.0729L18.0694 9.73303C18.0694 9.52093 18.0919 9.21598 17.9215 9.04655C17.7847 8.92266 17.5761 8.89567 17.2389 8.89567H16.2335V10.1775H15.297L15.2969 6.65349ZM11.5215 6.65349H14.6501V7.38732H12.4581V8.02252H14.5974V8.74488H12.4581V9.44864H14.6501V10.1774H11.5215V6.65349Z" fill="#2557D6"/>
</g>
<defs>
<clipPath id="clip0_1652_1658">
<rect width="33.3141" height="21.957" fill="white" transform="translate(0.728271 0.482361)"/>
</clipPath>
</defs>
</svg>
