<svg width="34" height="23" viewBox="0 0 34 23" fill="none" xmlns="http://www.w3.org/2000/svg">
<g id="payment-methods/light/visa" clip-path="url(#clip0_1652_1623)">
<path id="Rectangle 2" d="M0.0289307 3.22699C0.0289307 1.71117 1.27187 0.482361 2.8051 0.482361H30.5668C32.1001 0.482361 33.343 1.71117 33.343 3.22699V19.6947C33.343 21.2106 32.1001 22.4394 30.5668 22.4394H2.8051C1.27187 22.4394 0.0289307 21.2106 0.0289307 19.6947V3.22699Z" fill="#D8E3F3"/>
<g id="visa">
<path id="Vector" d="M28.7 7.36511H26.9548C26.4271 7.36511 26.0213 7.52562 25.7777 8.04726L22.4496 15.5508H24.8037C24.8037 15.5508 25.2095 14.5477 25.2907 14.3069C25.5342 14.3069 27.8477 14.3069 28.1724 14.3069C28.2536 14.5878 28.4565 15.5107 28.4565 15.5107H30.5671L28.7 7.36511ZM25.9401 12.6216C26.143 12.1401 26.833 10.3344 26.833 10.3344C26.833 10.3746 27.036 9.85293 27.1171 9.57205L27.2795 10.2943C27.2795 10.2943 27.7259 12.2605 27.8071 12.6618H25.9401V12.6216Z" fill="#3362AB"/>
<path id="Vector_2" d="M22.6117 12.8644C22.6117 14.5497 21.0694 15.6732 18.6747 15.6732C17.6601 15.6732 16.686 15.4726 16.1583 15.2318L16.483 13.386L16.7671 13.5064C17.4977 13.8274 17.9848 13.9478 18.8777 13.9478C19.5271 13.9478 20.2171 13.707 20.2171 13.1452C20.2171 12.7841 19.9329 12.5434 19.04 12.1421C18.1877 11.7408 17.0512 11.0988 17.0512 9.93515C17.0512 8.33011 18.6342 7.2467 20.8665 7.2467C21.7188 7.2467 22.4494 7.40721 22.8958 7.60784L22.5711 9.37339L22.4088 9.21288C22.0029 9.05238 21.4753 8.89187 20.7041 8.89187C19.8518 8.932 19.4459 9.29314 19.4459 9.61415C19.4459 9.97528 19.9329 10.2562 20.7041 10.6173C22.0029 11.2192 22.6117 11.9013 22.6117 12.8644Z" fill="#3362AB"/>
<path id="Vector_3" d="M2.80505 7.4467L2.84564 7.28619H6.33615C6.8232 7.28619 7.18849 7.4467 7.31025 7.96834L8.08141 11.5797C7.31025 9.65364 5.52441 8.08872 2.80505 7.4467Z" fill="#F9B50B"/>
<path id="Vector_4" d="M12.9926 7.36673L9.4615 15.5123H7.06684L5.03748 8.69089C6.49862 9.61379 7.71624 11.0583 8.1627 12.0615L8.40622 12.9041L10.5979 7.3266H12.9926V7.36673Z" fill="#3362AB"/>
<path id="Vector_5" d="M13.9261 7.3266H16.1584L14.7378 15.5123H12.5055L13.9261 7.3266Z" fill="#3362AB"/>
</g>
</g>
<defs>
<clipPath id="clip0_1652_1623">
<rect width="33.3141" height="21.957" fill="white" transform="translate(0.0289307 0.482361)"/>
</clipPath>
</defs>
</svg>
