<svg width="36" height="23" viewBox="0 0 36 23" fill="none" xmlns="http://www.w3.org/2000/svg">
<g id="payment-methods/light/paypal" clip-path="url(#clip0_1652_1631)">
<path id="Rectangle 1" d="M0.957642 3.22699C0.957642 1.71117 2.22883 0.482361 3.79691 0.482361H32.1896C33.7577 0.482361 35.0289 1.71117 35.0289 3.22699V19.6947C35.0289 21.2106 33.7577 22.4394 32.1896 22.4394H3.79691C2.22883 22.4394 0.957642 21.2106 0.957642 19.6947V3.22699Z" fill="#CCDEFF"/>
<g id="Group 10">
<path id="Vector" d="M8.60292 8.38512C8.24704 8.14863 7.78265 8.03009 7.20975 8.03009H4.99178C4.81615 8.03009 4.71912 8.115 4.70069 8.28465L3.7997 13.7518C3.79034 13.8055 3.80424 13.8546 3.84127 13.8993C3.87809 13.944 3.9244 13.9663 3.97987 13.9663H5.03339C5.21817 13.9663 5.31973 13.8816 5.33838 13.7117L5.58786 12.2378C5.59697 12.1663 5.62947 12.1082 5.68493 12.0635C5.74035 12.0189 5.80967 11.9897 5.89285 11.9763C5.97602 11.963 6.05445 11.9563 6.12852 11.9563C6.20237 11.9563 6.29012 11.9609 6.39194 11.9698C6.49351 11.9786 6.55825 11.983 6.586 11.983C7.38072 11.983 8.00451 11.7666 8.45742 11.3331C8.91011 10.9 9.13672 10.2993 9.13672 9.53078C9.13672 9.00372 8.95863 8.62186 8.60292 8.385V8.38512ZM7.45936 10.0268C7.41301 10.3395 7.29301 10.5448 7.09895 10.6431C6.90485 10.7416 6.62761 10.7906 6.26724 10.7906L5.80976 10.8039L6.04547 9.37006C6.06386 9.27188 6.1239 9.22273 6.22563 9.22273H6.4891C6.85858 9.22273 7.12675 9.27422 7.2931 9.37678C7.45936 9.47958 7.51483 9.6963 7.45936 10.0268Z" fill="#003087"/>
<path id="Vector_2" d="M32.0091 8.03009H30.9834C30.8815 8.03009 30.8215 8.07924 30.8031 8.17758L29.9021 13.7521L29.8882 13.7789C29.8882 13.8238 29.9067 13.866 29.9437 13.9062C29.9805 13.9464 30.0269 13.9665 30.0823 13.9665H30.9973C31.1726 13.9665 31.2697 13.8818 31.2885 13.7119L32.1895 8.2312V8.21789C32.1894 8.09276 32.1292 8.03025 32.0091 8.03025V8.03009Z" fill="#009CDE"/>
<path id="Vector_3" d="M19.6161 10.1889C19.6161 10.1444 19.5976 10.1019 19.5608 10.0618C19.5238 10.0216 19.4822 10.0013 19.4361 10.0013H18.3687C18.2668 10.0013 18.1836 10.0462 18.1191 10.1353L16.6497 12.2258L16.0398 10.2158C15.9933 10.073 15.8918 10.0013 15.7348 10.0013H14.695C14.6487 10.0013 14.6071 10.0215 14.5704 10.0618C14.5333 10.1019 14.5149 10.1445 14.5149 10.1889C14.5149 10.2069 14.605 10.4704 14.7852 10.9796C14.9653 11.4889 15.1594 12.0383 15.3674 12.628C15.5753 13.2175 15.6838 13.5304 15.6931 13.5658C14.9353 14.5665 14.5565 15.1025 14.5565 15.1738C14.5565 15.2901 14.6165 15.3481 14.7367 15.3481H15.8041C15.9057 15.3481 15.9888 15.3035 16.0537 15.2141L19.5886 10.2827C19.6069 10.265 19.6161 10.2339 19.6161 10.1889V10.1889Z" fill="#003087"/>
<path id="Vector_4" d="M29.5563 9.99925H28.5028C28.3733 9.99925 28.295 10.1467 28.2672 10.4416C28.0267 10.0843 27.588 9.90546 26.9502 9.90546C26.2848 9.90546 25.7187 10.1467 25.2521 10.6291C24.7854 11.1115 24.5521 11.679 24.5521 12.3311C24.5521 12.8582 24.7115 13.2781 25.0303 13.5906C25.3491 13.9035 25.7765 14.0596 26.3127 14.0596C26.5806 14.0596 26.8532 14.0059 27.1305 13.8988C27.4077 13.7917 27.6247 13.6488 27.7821 13.47C27.7821 13.479 27.7726 13.5191 27.7544 13.5905C27.7357 13.6621 27.7266 13.7159 27.7266 13.7513C27.7266 13.8944 27.7865 13.9657 27.9068 13.9657H28.8634C29.0388 13.9657 29.1406 13.881 29.1682 13.7111L29.7366 10.2136C29.7457 10.16 29.7319 10.1109 29.695 10.0662C29.6579 10.0217 29.6118 9.99925 29.5563 9.99925ZM27.7474 12.6392C27.5117 12.8626 27.2275 12.9742 26.8948 12.9742C26.6267 12.9742 26.4097 12.9028 26.2433 12.7598C26.0768 12.6172 25.9937 12.4206 25.9937 12.1702C25.9937 11.8399 26.1092 11.5605 26.3403 11.3327C26.5711 11.1049 26.8578 10.991 27.1998 10.991C27.4583 10.991 27.6732 11.0647 27.8443 11.2121C28.0151 11.3595 28.1009 11.5627 28.1009 11.8219C28.1008 12.1435 27.983 12.416 27.7474 12.6392Z" fill="#009CDE"/>
<path id="Vector_5" d="M13.8084 9.99925H12.7549C12.6253 9.99925 12.5469 10.1467 12.5192 10.4416C12.2697 10.0843 11.8306 9.90546 11.2022 9.90546C10.5368 9.90546 9.97072 10.1467 9.50409 10.6291C9.03733 11.1115 8.80408 11.679 8.80408 12.3311C8.80408 12.8582 8.96352 13.2781 9.28236 13.5906C9.6012 13.9035 10.0285 14.0596 10.5646 14.0596C10.8232 14.0596 11.0914 14.0059 11.3686 13.8988C11.6458 13.7917 11.8676 13.6488 12.034 13.47C11.9969 13.5771 11.9785 13.671 11.9785 13.7513C11.9785 13.8944 12.0386 13.9657 12.1587 13.9657H13.1152C13.2907 13.9657 13.3924 13.881 13.4202 13.7111L13.9885 10.2136C13.9976 10.16 13.9838 10.1109 13.947 10.0662C13.91 10.0217 13.8638 9.99925 13.8084 9.99925ZM11.9994 12.6459C11.7637 12.865 11.4748 12.9742 11.133 12.9742C10.8649 12.9742 10.65 12.9028 10.4884 12.7598C10.3266 12.6172 10.2458 12.4206 10.2458 12.1702C10.2458 11.8399 10.3613 11.5605 10.5924 11.3327C10.8233 11.1049 11.1098 10.991 11.4518 10.991C11.7105 10.991 11.9253 11.0647 12.0965 11.2121C12.2673 11.3595 12.3529 11.5627 12.3529 11.8219C12.3529 12.1524 12.2351 12.4272 11.9994 12.6459Z" fill="#003087"/>
<path id="Vector_6" d="M24.3506 8.38512C23.9947 8.14863 23.5305 8.03009 22.9574 8.03009H20.7533C20.5684 8.03009 20.4667 8.115 20.4483 8.28465L19.5473 13.7518C19.5379 13.8055 19.5518 13.8546 19.5889 13.8993C19.6255 13.944 19.672 13.9663 19.7274 13.9663H20.8641C20.975 13.9663 21.0489 13.9083 21.0859 13.7921L21.3355 12.2378C21.3447 12.1663 21.377 12.1082 21.4325 12.0635C21.488 12.0189 21.5572 11.9897 21.6405 11.9763C21.7236 11.963 21.802 11.9563 21.8761 11.9563C21.95 11.9563 22.0377 11.9609 22.1394 11.9698C22.2411 11.9786 22.306 11.983 22.3335 11.983C23.1284 11.983 23.7521 11.7666 24.205 11.3331C24.6578 10.9 24.8842 10.2993 24.8842 9.53078C24.8843 9.00372 24.7063 8.62182 24.3506 8.385V8.38512ZM22.9297 10.5895C22.7264 10.7235 22.4213 10.7904 22.0148 10.7904L21.5712 10.8039L21.8068 9.36998C21.8251 9.27184 21.8852 9.22261 21.987 9.22261H22.2364C22.4398 9.22261 22.6015 9.23158 22.7218 9.24939C22.8417 9.26733 22.9574 9.32308 23.0683 9.41683C23.1793 9.51067 23.2347 9.64698 23.2347 9.82556C23.2347 10.2009 23.1329 10.4554 22.9297 10.5895Z" fill="#009CDE"/>
</g>
</g>
<defs>
<clipPath id="clip0_1652_1631">
<rect width="34.0712" height="21.957" fill="white" transform="translate(0.957642 0.482361)"/>
</clipPath>
</defs>
</svg>
