<svg width="35" height="23" viewBox="0 0 35 23" fill="none" xmlns="http://www.w3.org/2000/svg">
<g id="payment-methods/light/discover" clip-path="url(#clip0_1652_1646)">
<path id="Rectangle 1" d="M0.657104 3.22699C0.657104 1.71117 1.92829 0.482361 3.49637 0.482361H31.8891C33.4572 0.482361 34.7283 1.71117 34.7283 3.22699V19.6947C34.7283 21.2106 33.4572 22.4394 31.8891 22.4394H3.49637C1.92829 22.4394 0.657104 21.2106 0.657104 19.6947V3.22699Z" fill="#FCE0CF"/>
<g id="Group 7">
<path id="Vector" d="M20.9437 11.4464C20.9463 10.8565 20.7175 10.2657 20.257 9.82053C19.7955 9.37443 19.1829 9.15343 18.5714 9.15698C18.5685 9.15698 18.5656 9.1568 18.5626 9.1568C17.2347 9.1568 16.1814 10.1747 16.1814 11.4587C16.1814 12.7301 17.2477 13.7605 18.5626 13.7605C19.8908 13.7605 20.944 12.7424 20.944 11.4587C20.944 11.4545 20.9437 11.4505 20.9437 11.4464Z" fill="#F26E21"/>
<g id="Group">
<path id="Vector_2" d="M15.7391 12.4331C15.3832 12.7775 15.0547 12.9121 14.7008 12.9193C13.8389 12.9119 13.2051 12.2948 13.2051 11.415C13.2051 10.9722 13.3786 10.6092 13.6534 10.2991C13.9111 10.0627 14.243 9.90986 14.6248 9.90986C15.0369 9.90986 15.3576 10.0426 15.7237 10.3968V9.37866C15.3576 9.20168 15.0368 9.1131 14.6248 9.1131C14.0427 9.15332 13.4938 9.38068 13.0728 9.73771C12.9514 9.84325 12.8352 9.95975 12.7366 10.0931C12.429 10.4784 12.2432 10.9502 12.2432 11.4595C12.2432 12.743 13.2968 13.7169 14.6247 13.7169C14.6312 13.7169 14.6376 13.7164 14.6439 13.7163C14.6528 13.7164 14.6616 13.7169 14.6705 13.7169C15.0367 13.7169 15.3576 13.6286 15.7697 13.4515L15.7391 12.4331C15.7236 12.448 15.7544 12.4619 15.7391 12.4761V12.4331Z" fill="#2B2B2B"/>
<path id="Vector_3" d="M23.9499 9.74752L22.9129 12.2123L21.7221 9.29041H20.7606L22.6381 13.7615H23.1418L25.111 9.29041H24.1494L23.9499 9.74752Z" fill="#2B2B2B"/>
<path id="Vector_4" d="M25.478 11.2383V13.6289H27.951H27.9966V12.9203H27.2182H26.3939V12.1237V11.7254H27.951V10.9726H26.3939V10.0431H27.9966V9.29041H25.478V11.2383Z" fill="#2B2B2B"/>
<path id="Vector_5" d="M4.77882 9.29126H3.49634V13.6297H4.77876C5.46556 13.6297 5.96922 13.4525 6.38137 13.1426C6.88503 12.7442 7.20573 12.1246 7.20573 11.4607C7.20579 10.1766 6.24394 9.29126 4.77882 9.29126ZM5.83199 12.5673C5.5572 12.7885 5.19084 12.9212 4.64127 12.9212H4.36648V10.0439H4.59542C5.14499 10.0439 5.51135 10.1324 5.7862 10.3979C6.10671 10.6633 6.28999 11.062 6.28999 11.4605C6.33577 11.8589 6.15262 12.3014 5.83199 12.5673Z" fill="#2B2B2B"/>
<path id="Vector_6" d="M8.48825 9.29016H7.61816V13.6285H8.48825V9.29016Z" fill="#2B2B2B"/>
<path id="Vector_7" d="M10.6864 10.9731C10.137 10.7961 9.99942 10.6632 9.99942 10.4419C9.99942 10.1763 10.2742 9.955 10.6406 9.955C10.9154 9.955 11.1443 10.0436 11.3733 10.3092L11.8314 9.73376C11.4649 9.42375 11.0071 9.24689 10.5033 9.24689C9.72464 9.24689 9.08349 9.77814 9.08349 10.4862C9.08349 11.1061 9.35853 11.3717 10.1827 11.6815C10.5491 11.8141 10.6865 11.8586 10.7782 11.9471C10.9611 12.0355 11.0528 12.2127 11.0528 12.3896C11.0528 12.7438 10.7782 13.0095 10.3658 13.0095C9.95332 13.0095 9.58728 12.7882 9.40406 12.434L8.85449 12.9652C9.26683 13.5407 9.77055 13.8062 10.4117 13.8062C11.3275 13.8062 11.9683 13.2308 11.9683 12.3896C11.9685 11.6372 11.6939 11.3273 10.6864 10.9731Z" fill="#2B2B2B"/>
<path id="Vector_8" d="M30.47 11.8136C31.1567 11.681 31.5232 11.2382 31.5232 10.5743C31.5232 9.77764 30.9277 9.29041 29.9204 9.29041H28.5923V13.6289H29.4624V11.9022H29.5999L30.836 13.6289H31.8895L30.47 11.8136ZM29.737 11.2824H29.4624V9.9545H29.737C30.2866 9.9545 30.6073 10.1757 30.6073 10.6187C30.6073 11.0612 30.2867 11.2824 29.737 11.2824Z" fill="#2B2B2B"/>
</g>
</g>
</g>
<defs>
<clipPath id="clip0_1652_1646">
<rect width="34.0712" height="21.957" fill="white" transform="translate(0.657104 0.482361)"/>
</clipPath>
</defs>
</svg>
